<svg width="400" height="300" viewBox="0 0 400 300" fill="none" xmlns="http://www.w3.org/2000/svg">
  <!-- Background -->
  <rect width="400" height="300" fill="#1a1a1a"/>
  
  <!-- Card Grid -->
  <!-- Row 1 -->
  <rect x="20" y="20" width="80" height="50" rx="8" fill="#2d2d2d" stroke="#404040" stroke-width="1"/>
  <rect x="120" y="20" width="80" height="50" rx="8" fill="#2d2d2d" stroke="#404040" stroke-width="1"/>
  <rect x="220" y="20" width="80" height="50" rx="8" fill="#2d2d2d" stroke="#404040" stroke-width="1"/>
  <rect x="320" y="20" width="60" height="50" rx="8" fill="#2d2d2d" stroke="#404040" stroke-width="1"/>
  
  <!-- Row 2 -->
  <rect x="20" y="90" width="80" height="50" rx="8" fill="#333333" stroke="#505050" stroke-width="1"/>
  <rect x="120" y="90" width="80" height="50" rx="8" fill="#333333" stroke="#505050" stroke-width="1"/>
  <rect x="220" y="90" width="80" height="50" rx="8" fill="#333333" stroke="#505050" stroke-width="1"/>
  <rect x="320" y="90" width="60" height="50" rx="8" fill="#333333" stroke="#505050" stroke-width="1"/>
  
  <!-- Row 3 -->
  <rect x="20" y="160" width="80" height="50" rx="8" fill="#2a2a2a" stroke="#454545" stroke-width="1"/>
  <rect x="120" y="160" width="80" height="50" rx="8" fill="#2a2a2a" stroke="#454545" stroke-width="1"/>
  <rect x="220" y="160" width="80" height="50" rx="8" fill="#2a2a2a" stroke="#454545" stroke-width="1"/>
  <rect x="320" y="160" width="60" height="50" rx="8" fill="#2a2a2a" stroke="#454545" stroke-width="1"/>
  
  <!-- Row 4 -->
  <rect x="20" y="230" width="80" height="50" rx="8" fill="#353535" stroke="#555555" stroke-width="1"/>
  <rect x="120" y="230" width="80" height="50" rx="8" fill="#353535" stroke="#555555" stroke-width="1"/>
  <rect x="220" y="230" width="80" height="50" rx="8" fill="#353535" stroke="#555555" stroke-width="1"/>
  <rect x="320" y="230" width="60" height="50" rx="8" fill="#353535" stroke="#555555" stroke-width="1"/>
  
  <!-- Card details/highlights -->
  <!-- Row 1 highlights -->
  <circle cx="40" cy="35" r="3" fill="#60a5fa"/>
  <circle cx="140" cy="35" r="3" fill="#34d399"/>
  <circle cx="240" cy="35" r="3" fill="#f59e0b"/>
  <circle cx="340" cy="35" r="3" fill="#ef4444"/>
  
  <!-- Row 2 highlights -->
  <circle cx="40" cy="105" r="3" fill="#8b5cf6"/>
  <circle cx="140" cy="105" r="3" fill="#06b6d4"/>
  <circle cx="240" cy="105" r="3" fill="#10b981"/>
  <circle cx="340" cy="105" r="3" fill="#f97316"/>
  
  <!-- Row 3 highlights -->
  <circle cx="40" cy="175" r="3" fill="#ec4899"/>
  <circle cx="140" cy="175" r="3" fill="#6366f1"/>
  <circle cx="240" cy="175" r="3" fill="#84cc16"/>
  <circle cx="340" cy="175" r="3" fill="#f43f5e"/>
  
  <!-- Row 4 highlights -->
  <circle cx="40" cy="245" r="3" fill="#14b8a6"/>
  <circle cx="140" cy="245" r="3" fill="#a855f7"/>
  <circle cx="240" cy="245" r="3" fill="#eab308"/>
  <circle cx="340" cy="245" r="3" fill="#dc2626"/>
  
  <!-- Subtle grid lines for depth -->
  <line x1="0" y1="75" x2="400" y2="75" stroke="#1f1f1f" stroke-width="1" opacity="0.5"/>
  <line x1="0" y1="145" x2="400" y2="145" stroke="#1f1f1f" stroke-width="1" opacity="0.5"/>
  <line x1="0" y1="215" x2="400" y2="215" stroke="#1f1f1f" stroke-width="1" opacity="0.5"/>
  
  <line x1="110" y1="0" x2="110" y2="300" stroke="#1f1f1f" stroke-width="1" opacity="0.5"/>
  <line x1="210" y1="0" x2="210" y2="300" stroke="#1f1f1f" stroke-width="1" opacity="0.5"/>
  <line x1="310" y1="0" x2="310" y2="300" stroke="#1f1f1f" stroke-width="1" opacity="0.5"/>
</svg>