<svg width="721" height="682" viewBox="0 0 721 682" fill="none" xmlns="http://www.w3.org/2000/svg">
<path d="M480.729 116.79L509.755 11.7744C454.449 -3.48015 396.104 -3.91975 340.575 10.4996C285.045 24.9189 234.285 53.6899 193.388 93.9254C152.491 134.161 122.897 184.445 107.574 239.732C92.2515 295.019 91.7403 353.364 106.091 408.911L0.970032 436.186C15.3434 491.762 44.0921 542.576 84.3268 583.521C124.562 624.465 174.865 654.098 230.181 669.441C285.497 684.783 343.877 685.296 399.454 670.927C455.031 656.557 505.847 627.812 546.794 587.58L623.314 665.267C664.256 624.973 693.866 574.606 709.162 519.235C724.458 463.864 724.901 405.44 710.448 349.843C695.994 294.246 667.154 243.435 626.828 202.524C586.502 161.612 536.112 132.043 480.729 116.79ZM603.785 490.047C593.701 526.786 574.097 560.211 546.953 586.944L470.487 509.31C443.24 536.14 409.414 555.331 372.405 564.956C335.397 574.581 296.507 574.302 259.641 564.146C222.774 553.99 189.228 534.314 162.369 507.095C135.511 479.875 116.285 446.069 106.622 409.07L211.743 381.742C202.115 344.71 202.406 305.795 212.589 268.91C222.771 232.026 242.484 198.473 269.747 171.624C297.01 144.775 330.861 125.577 367.897 115.961C404.933 106.345 443.848 106.649 480.729 116.843L451.702 221.858C479.313 229.463 505.155 242.433 527.752 260.029C550.348 277.625 569.255 299.501 583.394 324.407C597.532 349.313 606.624 376.761 610.15 405.183C613.677 433.604 611.568 462.441 603.945 490.047H603.785Z" fill="black"/>
</svg>
