<svg width="422" height="514" viewBox="0 0 422 514" fill="none" xmlns="http://www.w3.org/2000/svg">
<path fill-rule="evenodd" clip-rule="evenodd" d="M205.668 5.66705C204.846 9.70212 203.184 12.0674 200.645 12.8099C197.159 13.8296 197.101 14.0866 199.926 15.9916C201.617 17.1306 203 18.9096 203 19.9444C203 20.9792 199.516 23.5175 195.255 25.5854C188.499 28.8646 188.04 29.4206 191.658 29.9414C193.939 30.2689 197.919 31.549 200.502 32.7837C205.165 35.0129 205.17 35.0415 201.345 36.9297C199.226 37.9746 196.476 38.7103 195.235 38.5625C193.992 38.4147 191.953 38.3828 190.699 38.4936C189.447 38.6028 188.421 39.4982 188.421 40.4843C188.421 41.4704 189.923 41.8383 191.76 41.3007C193.828 40.696 196.363 41.6115 198.42 43.708C200.248 45.5693 201.001 47.1786 200.093 47.2845C199.186 47.392 197.624 47.654 196.622 47.8691C195.619 48.0841 193.356 48.3747 191.592 48.5158C189.828 48.6553 186.981 50.2831 185.265 52.1309C183.548 53.9788 180.891 55.5025 179.36 55.5159C177.827 55.531 175.345 56.3189 173.842 57.2663C171.888 58.4994 175.13 58.8639 185.214 58.5447C196.58 58.1836 199.929 58.659 202.461 60.994C205.422 63.7221 205.422 63.8901 202.479 63.8901C200.76 63.8901 199.355 62.7562 199.355 61.3703C199.355 59.9844 198.448 58.8505 197.338 58.8505C196.228 58.8505 195.767 59.9222 196.312 61.2309C196.857 62.5412 196.057 64.0531 194.535 64.5906C193.013 65.1299 190.464 65.57 188.871 65.57C187.278 65.57 184.412 66.8736 182.502 68.4661C180.592 70.0586 176.428 72.1383 173.248 73.0858C170.066 74.0333 167.464 75.7971 167.464 77.005C167.464 78.2128 165.413 80.6755 162.908 82.4764L158.352 85.7521L165.641 85.4346C169.65 85.2599 174.866 84.3393 177.232 83.3885C180.71 81.9909 182.004 82.2596 184.014 84.7929C186.261 87.6269 186.608 87.6605 187.654 85.1457C188.29 83.6187 190.677 82.3688 192.959 82.3688C195.576 82.3688 197.46 83.6103 198.061 85.7286C198.768 88.2199 198.116 89.0884 195.539 89.0884C193.629 89.0884 191.668 89.1337 191.184 89.1875C190.699 89.2429 184.344 90.8035 177.06 92.6581C169.778 94.511 159.875 98.3529 155.057 101.195C150.237 104.038 146.991 107.006 147.842 107.791C148.693 108.575 153.202 109.874 157.861 110.677C162.521 111.48 166.999 111.572 167.81 110.881C168.623 110.193 170.926 110.245 172.931 110.999C176.171 112.219 176.209 112.383 173.279 112.489C171.134 112.565 170.47 113.334 171.38 114.691C172.149 115.837 172.661 122.83 172.519 130.23C172.375 137.63 171.859 144.818 171.373 146.204C170.884 147.59 170.075 149.858 169.574 151.244C169.007 152.81 168.608 152.331 168.519 149.984C168.404 146.981 167.309 146.204 163.19 146.204C160.305 146.204 156.529 144.701 154.681 142.818C151.459 139.537 151.465 139.356 154.855 136.992C157.61 135.068 157.772 134.496 155.618 134.286C154.115 134.139 151.244 133.852 149.24 133.647C147.235 133.441 144.775 133.147 143.773 132.994C142.77 132.839 143.157 132.011 144.631 131.151C146.105 130.291 146.712 129.036 145.979 128.359C145.245 127.684 143.589 128.463 142.296 130.093C140.075 132.893 139.377 132.903 129.558 130.271C121.556 128.127 119.17 126.743 119.17 124.247C119.17 122.093 120.432 121.006 122.93 121.006C126.075 121.006 126.597 120.112 126.119 115.547C125.6 110.581 124.971 110.065 119.17 109.85C114.405 109.674 114.059 109.808 117.804 110.383C120.561 110.804 122.813 111.666 122.81 112.298C122.806 112.929 119.943 113.504 116.448 113.573C112.951 113.642 109.492 114.25 108.761 114.923C108.028 115.597 108.524 116.773 109.862 117.534C111.879 118.683 111.87 119.074 109.809 119.83C108.325 120.375 108.896 120.794 111.23 120.873C113.379 120.946 115.584 122.085 116.134 123.403C116.683 124.722 116.094 126.593 114.828 127.563C113.204 128.804 111.89 128.742 110.379 127.349C108.737 125.836 108.236 126.249 108.236 129.122C108.236 131.185 106.802 133.372 105.047 133.983C103.292 134.596 100.861 135.895 99.6436 136.871C98.4244 137.847 96.1975 139.596 94.6904 140.76C93.1851 141.922 88.8514 143.547 85.0609 144.37C80.8311 145.289 79.5755 146.025 81.8116 146.275C83.8162 146.5 88.8241 146.843 92.9427 147.038C97.0595 147.231 101.364 147.925 102.51 148.576C103.655 149.228 104.591 152.363 104.591 155.543C104.591 158.723 105.36 161.323 106.301 161.323C107.241 161.323 107.857 157.893 107.668 153.702C107.365 146.955 107.742 146.136 110.97 146.562C112.974 146.828 114.717 147.99 114.842 149.144C114.968 150.3 115.172 152 115.298 152.924C115.424 153.848 116.326 154.604 117.302 154.604C118.425 154.604 118.469 153.12 117.419 150.577C116.506 148.361 116.163 146.176 116.659 145.721C117.153 145.264 119.152 145.274 121.099 145.742C123.045 146.213 124.638 147.975 124.638 149.662C124.638 151.347 123.872 153.162 122.935 153.695C121.999 154.229 121.696 157.297 122.263 160.514C122.897 164.115 122.549 166.363 121.357 166.363C120.295 166.363 119.068 164.663 118.635 162.583L117.844 158.804L117.596 162.583C117.426 165.167 116.194 166.363 113.703 166.363C110.428 166.363 110.059 167.483 110.059 177.381C110.059 184.733 110.704 188.032 111.996 187.296C113.06 186.69 117.982 186.078 122.932 185.937C127.881 185.798 131.933 186.06 131.933 186.522C131.934 186.984 134.32 187.514 137.236 187.703C140.556 187.916 142.934 187.091 143.598 185.495C144.181 184.096 145.489 183.422 146.506 184.002C147.523 184.581 148.873 183.81 149.506 182.288C150.428 180.073 150.971 179.967 152.227 181.761C153.5 183.578 154.082 183.594 155.314 181.836C156.148 180.645 159.225 179.511 162.148 179.317C165.071 179.122 167.885 178.451 168.4 177.825C168.914 177.2 174.451 177.116 180.701 177.638C188.406 178.283 192.066 179.306 192.066 180.817C192.066 182.041 190.48 183.825 188.541 184.783C186.602 185.739 181.272 186.522 176.696 186.522C172.12 186.522 168.375 185.789 168.375 184.894C168.375 184 167.075 183.726 165.488 184.289C163.165 185.111 163.075 185.586 165.033 186.73C166.37 187.511 166.643 188.262 165.641 188.396C164.639 188.532 166.689 189.211 170.197 189.907C173.796 190.619 159.323 191.203 136.97 191.25C114.348 191.298 96.9137 190.661 96.3141 189.767C95.7364 188.905 97.3146 188.201 99.8204 188.201C102.326 188.201 104.839 187.509 105.406 186.664C105.973 185.819 105.406 184.746 104.147 184.277C102.328 183.602 102.326 183.4 104.136 183.295C105.39 183.222 106.414 182.028 106.414 180.642C106.414 179.256 106.082 178.122 105.676 178.122C105.267 178.122 101.373 179.805 97.0194 181.863C92.6639 183.921 88.7148 185.851 88.2428 186.154C87.7708 186.456 88.5909 187.407 90.0652 188.267C91.7928 189.273 83.5101 189.839 66.7769 189.856C44.9211 189.878 40.808 190.281 40.808 192.401C40.808 193.787 40.0298 194.921 39.0767 194.921C38.1255 194.921 33.5385 197.29 28.8842 200.186C22.6389 204.071 21.0643 205.823 22.8703 206.878C24.217 207.665 27.6212 208.32 30.4368 208.335C33.8374 208.352 35.1203 209.012 34.2565 210.3C33.4911 211.441 33.7517 211.785 34.8907 211.137C35.955 210.53 38.7469 210.71 41.0959 211.535C45.3038 213.017 45.2856 213.054 39.8968 214.199C36.8899 214.838 30.7393 216.472 26.2289 217.833C21.7185 219.194 14.3379 220.731 9.82751 221.25C5.31711 221.769 1.28418 222.483 0.866853 222.837C0.449527 223.19 3.72981 223.598 8.15638 223.744C12.5829 223.889 17.2063 223.976 18.4273 223.939C19.6501 223.901 21.1409 225.293 21.7404 227.034C22.4038 228.962 24.5195 230.199 27.1547 230.199C29.5347 230.199 31.9877 230.954 32.6073 231.878C33.2269 232.802 35.6871 233.558 38.0744 233.558C40.4617 233.558 42.9347 234.334 43.5707 235.284C44.2067 236.231 45.6902 236.898 46.8674 236.764C48.0447 236.629 50.5322 236.609 52.3929 236.72C54.4303 236.839 55.4035 237.817 54.8367 239.176C54.1533 240.817 55.1702 241.209 58.558 240.612C61.5668 240.081 62.7932 240.424 62.0205 241.578C61.3189 242.625 63.0994 243.826 66.3214 244.478C69.3465 245.091 71.3457 246.297 70.768 247.162C70.1885 248.025 68.951 248.298 68.018 247.765C67.0849 247.234 66.2557 248.167 66.1774 249.838C66.0935 251.6 65.6471 251.995 65.1149 250.777C64.6083 249.621 63.0593 248.677 61.6706 248.677C60.2164 248.677 59.5749 249.707 60.158 251.108C60.7485 252.524 64.3349 253.803 68.7579 254.174L76.3445 254.811L67.6881 255.103C62.9281 255.264 59.0318 256.183 59.0318 257.142C59.0318 258.169 58.0168 258.016 56.5734 256.773C55.2212 255.608 54.2845 253.5 54.4905 252.087C54.6964 250.673 54.5123 250.463 54.0804 251.617C53.6503 252.773 51.7168 253.717 49.7869 253.717C47.8552 253.717 46.2751 254.333 46.2751 255.086C46.2751 255.839 49.1454 257.717 52.6535 259.259C56.1616 260.801 59.0318 263.252 59.0318 264.708C59.0318 266.163 59.7753 266.931 60.6829 266.413C61.5904 265.896 61.9057 263.961 61.3809 262.115C60.7685 259.956 61.3262 258.757 62.9427 258.757C64.3258 258.757 66.2667 260.384 67.2562 262.375C68.8053 265.493 70.8245 266.069 81.8116 266.526C88.8278 266.82 96.6185 267.526 99.1242 268.095C103.66 269.126 103.653 269.145 97.3019 272.436C92.4798 274.936 92.0352 275.48 95.4795 274.673C97.9852 274.085 101.881 273.198 104.136 272.705C107.436 271.979 108.236 272.522 108.236 275.48C108.236 277.501 109.466 280.289 110.97 281.675C113.399 283.914 113.703 283.726 113.703 279.985C113.703 277.669 114.613 273.645 115.724 271.045L117.744 266.316L119.774 270.516C120.891 272.826 122.622 275.241 123.623 275.885C124.625 276.526 124.947 277.509 124.342 278.067C123.737 278.625 123.947 281.971 124.809 285.504C125.849 289.777 125.585 294.728 124.018 300.297C122.724 304.901 122.012 311.418 122.436 314.777C122.863 318.137 123.941 320.469 124.834 319.96C125.729 319.451 126.46 319.81 126.46 320.761C126.46 321.71 127.544 322.103 128.869 321.635C130.254 321.144 132.2 322.649 133.449 325.172C134.642 327.588 135.191 330.202 134.668 330.981C134.143 331.763 135.012 333.595 136.596 335.055C138.182 336.517 140.239 337.711 141.168 337.711C142.1 337.711 142.861 335.821 142.861 333.511C142.861 331.202 141.877 329.312 140.675 329.312C138.974 329.312 138.974 328.863 140.675 327.296C141.877 326.187 142.861 323.909 142.861 322.233C142.861 320.558 142.067 317.873 141.097 316.269C140.126 314.665 138.635 307.871 137.782 301.174C136.93 294.474 136.844 288.994 137.593 288.994C138.342 288.994 139.545 293.342 140.266 298.654C141.154 305.195 141.978 307.265 142.816 305.064C143.698 302.753 144.452 302.41 145.438 303.878C146.198 305.012 145.828 307.041 144.618 308.387C143.33 309.817 143.18 310.833 144.257 310.833C145.272 310.833 146.063 311.779 146.016 312.933C145.97 314.089 146.062 320.892 146.218 328.052C146.402 336.36 147.242 341.071 148.542 341.071C149.679 341.071 150.156 339.589 149.622 337.711C149.099 335.863 149.347 334.351 150.176 334.351C151.006 334.351 152.281 336.809 153.014 339.811C153.819 343.124 154.705 344.279 155.266 342.751C155.773 341.365 157.526 339.097 159.159 337.711C161.273 335.919 162.044 332.646 161.829 326.372C161.665 321.522 162.16 317.552 162.935 317.552C163.708 317.552 164.838 318.749 165.446 320.21C166.055 321.672 166.552 325.784 166.552 329.35C166.552 332.915 167.422 336.329 168.486 336.933C169.614 337.578 170.201 342.485 169.896 348.75C169.547 355.926 170.163 360.169 171.761 361.606C173.722 363.366 173.953 362.587 173.056 357.233C172.209 352.172 172.683 350.216 175.181 348.467C176.951 347.229 177.503 346.193 176.408 346.164C175.291 346.134 174.474 343.167 174.545 339.391C174.615 335.695 175.198 332.671 175.841 332.671C176.484 332.671 177.518 335.507 178.139 338.971C178.761 342.437 179.278 347.394 179.289 349.989C179.3 352.711 178.538 354.268 177.487 353.67C176.384 353.042 175.664 355.365 175.664 359.55C175.664 364.636 175.061 366.133 173.386 365.206C171.635 364.235 171.588 364.504 173.186 366.367C174.328 367.699 175.207 371.813 175.138 375.508C175.046 380.294 173.767 383.315 170.687 386.008C167.398 388.884 167.052 389.787 169.237 389.787C170.817 389.787 172.75 391.487 173.534 393.567C174.318 395.647 174.37 403.772 173.651 411.626C172.931 419.479 171.93 427.985 171.429 430.525C170.788 433.78 171.278 435.144 173.091 435.144C174.822 435.144 175.715 437.206 175.817 441.444L175.972 447.743L179.398 440.886C182.478 434.721 183.377 434.103 188.297 434.77C191.82 435.245 194.243 436.791 195.1 439.107C195.833 441.084 196.348 443.082 196.246 443.544C196.144 444.006 197.21 445.358 198.619 446.549C200.097 447.801 201.178 447.979 201.178 446.969C201.178 446.01 202.408 445.224 203.911 445.224C205.626 445.224 206.725 446.946 206.86 449.843C206.98 452.383 206.958 455.086 206.816 455.847C206.672 456.61 207.396 456.754 208.422 456.168C209.449 455.584 210.29 452.126 210.29 448.484C210.29 444.842 210.906 441.864 211.656 441.864C212.407 441.862 212.855 456.207 212.651 473.738C213.159 490.518 215.179 506.214 215.179 506.214C215.179 506.214 221.65 527.797 232.747 494.78C233.324 491.084 234.13 482.013 234.536 474.622C234.943 467.23 235.393 458.303 235.539 454.784C235.712 450.579 236.494 448.778 237.82 449.534C239.214 450.329 239.468 449.129 238.637 445.647C237.735 441.857 238.167 440.352 240.381 439.569C241.999 438.996 242.934 437.946 242.456 437.236C241.981 436.523 242.719 434.062 244.098 431.763C245.48 429.465 246.661 428.341 246.726 429.265C246.792 430.189 249.281 426.175 252.257 420.346C255.235 414.517 258.466 410.201 259.439 410.756C260.412 411.31 261.648 410.032 262.182 407.915C262.718 405.798 263.357 394.995 263.603 383.908C264.002 365.883 264.387 363.774 267.239 363.983C268.994 364.11 270.428 363.254 270.428 362.078C270.428 360.904 272.684 359.526 275.44 359.019C279.172 358.332 281.277 359.032 283.684 361.764L286.917 365.429L286.418 360.389C285.957 355.728 286.567 355.16 294.566 352.83L303.213 350.31L303.222 336.384C303.229 325.483 302.385 320.922 299.342 315.385C297.203 311.497 294.844 307.935 294.103 307.473C293.361 307.011 292.251 303.987 291.635 300.754C291.021 297.52 290.986 295.82 291.559 296.974C292.131 298.13 293.968 299.013 295.637 298.941C297.532 298.859 297.819 298.489 296.397 297.962C295.145 297.495 294.119 295.951 294.119 294.528C294.119 292.712 294.797 292.426 296.397 293.57C297.651 294.466 303.22 295.363 308.777 295.563C317.303 295.869 320.567 295.044 329.734 290.261C335.704 287.147 342.839 283.236 345.587 281.571C348.337 279.908 351.69 278.937 353.042 279.416C354.394 279.893 356.288 279.787 357.252 279.179C358.218 278.572 360.807 275.34 363.011 271.997C365.212 268.654 367.014 265.169 367.014 264.251C367.014 263.333 364.959 262.944 362.448 263.386C359.936 263.83 356.862 263.448 355.614 262.541C354.367 261.634 351.016 261.202 348.167 261.582C345.321 261.962 341.864 261.411 340.486 260.358C338.917 259.156 335.239 258.869 330.631 259.586C326.042 260.302 323.277 260.089 323.277 259.02C323.277 258.08 325.121 256.976 327.378 256.568L331.478 255.823L327.398 254.579C325.154 253.895 323.777 252.652 324.334 251.819C324.894 250.985 326.115 250.737 327.048 251.269C327.981 251.8 328.744 251.387 328.744 250.35C328.744 249.314 330.179 248.63 331.934 248.83C333.689 249.03 336.553 248.62 338.301 247.92C340.05 247.219 340.993 245.917 340.397 245.029C339.799 244.14 341.035 242.996 343.139 242.489C345.246 241.981 346.968 240.898 346.968 240.081C346.968 239.267 348.971 238.598 351.417 238.598C355.163 238.598 356.138 239.725 357.6 245.737C358.95 251.293 359.379 251.852 359.53 248.257C359.637 245.717 361.365 242.126 363.37 240.278C365.374 238.43 367.014 236.224 367.014 235.378C367.014 234.529 370.854 232.485 375.547 230.832C382.098 228.525 384.254 228.319 384.843 229.943C385.384 231.443 386.282 231.205 387.939 229.117C389.233 227.484 395.028 225.251 400.967 224.096C406.85 222.952 414.533 221.89 418.041 221.739C423.264 221.512 422.275 221.043 412.574 219.152C406.059 217.882 399.305 216.067 397.565 215.12C395.824 214.174 392.912 213.4 391.095 213.4C389.277 213.4 386.791 212.479 385.57 211.354C384.349 210.228 380.699 209.198 377.46 209.067C374.22 208.935 368.146 207.952 363.962 206.883C357.759 205.298 356.14 204.034 355.185 200.033C354.391 196.697 352.743 194.958 350.037 194.604C347.515 194.273 345.842 192.69 345.472 190.283C344.996 187.192 345.962 186.286 350.664 185.42L356.441 184.355L349.547 182.171C345.756 180.968 341.948 180.387 341.086 180.879C340.224 181.369 338.325 180.857 336.865 179.742C335.405 178.624 334.211 177.136 334.211 176.432C334.211 175.73 335.852 174.759 337.856 174.275C339.861 173.793 341.501 174.102 341.501 174.962C341.501 175.824 343.961 175.355 346.968 173.922C349.975 172.49 352.435 170.679 352.435 169.899C352.435 169.12 349.361 168.014 345.601 167.441C341.844 166.869 336.438 166.392 333.592 166.381C330.446 166.37 327.108 164.88 325.08 162.583C322.623 159.8 321.9 156.655 322.335 150.651C322.798 144.257 324.13 141.353 328.511 137.187L334.097 131.875L324.917 127.119C319.869 124.504 315.412 121.492 315.011 120.425C314.61 119.358 313.897 108.667 313.427 96.6646C312.664 77.1847 312.17 74.5423 308.813 72.0375C306.745 70.4937 305.053 68.7853 305.053 68.241C305.053 67.695 306.284 67.2499 307.787 67.2499C309.29 67.2499 310.521 66.8652 310.521 66.3948C310.521 65.9245 308.177 63.2786 305.312 60.5152C302.447 57.7518 299.665 55.4907 299.131 55.4907C298.597 55.4907 297.644 57.3806 297.015 59.6904C296.386 62.0002 294.799 63.8901 293.489 63.8901C291.914 63.8901 291.36 65.4894 291.856 68.6055C292.326 71.5571 291.526 74.1475 289.718 75.53C287.606 77.1478 286.83 80.7763 286.83 89.048C286.83 95.267 286.308 104.945 285.672 110.556C284.634 119.723 284.041 120.865 279.823 121.841C276.462 122.619 274.459 122.085 272.777 119.966C271.485 118.337 270.428 117.92 270.428 119.041C270.428 120.161 268.456 121.907 266.045 122.92C262.448 124.43 260.325 124.067 254.2 120.894C250.096 118.767 246.737 116.412 246.737 115.657C246.737 114.903 248.283 114.287 250.172 114.287C252.062 114.287 257.803 113.038 262.929 111.511C268.055 109.986 272.251 108.199 272.251 107.54C272.251 106.882 269.176 104.473 265.417 102.185C261.659 99.8967 256.184 96.668 253.256 95.0066C248.478 92.3003 248.241 91.7779 250.951 89.9518C252.613 88.8313 254.189 86.1066 254.455 83.8975C254.85 80.6134 252.778 78.5723 243.092 72.7061C236.577 68.7601 230.983 64.4058 230.658 63.0317C230.323 61.6105 231.364 60.5304 233.066 60.5304C234.715 60.5304 237.159 59.5191 238.5 58.2844C240.532 56.4113 239.276 55.2891 230.91 51.506C222.521 47.7145 221.246 46.5722 223.099 44.5127C224.788 42.6362 224.812 41.4922 223.194 39.6948C221.565 37.8855 221.619 37.1212 223.425 36.4022C224.721 35.8865 223.615 35.8747 220.967 36.3753C218.321 36.8742 215.607 36.4677 214.937 35.4682C214.18 34.3393 215.656 33.6069 218.838 33.5346C221.654 33.4691 225.598 32.8257 227.602 32.1034C230.83 30.9426 230.398 30.3916 223.835 27.3056C219.759 25.3872 215.46 22.7481 214.282 21.4395C212.557 19.5227 213.111 18.6391 217.138 16.8903L222.135 14.7183L216.128 12.3899C212.826 11.1099 210.618 9.32247 211.223 8.42037C211.828 7.51828 211.102 5.17316 209.61 3.20769C206.958 -0.279744 206.867 -0.222625 205.668 5.66705ZM208.467 84.0134C208.467 84.803 207.443 85.8294 206.189 86.2964C204.937 86.7617 205.755 87.2035 208.012 87.2758C210.268 87.348 212.112 88.062 212.112 88.8582C212.112 89.6562 210.268 90.1316 208.012 89.9132C205.755 89.6948 203.47 89.421 202.933 89.3034C202.393 89.1841 201.843 87.7327 201.708 86.0763C201.555 84.2184 202.803 82.9702 204.965 82.8207C206.891 82.6863 208.467 83.2239 208.467 84.0134ZM217.085 85.0634C216.48 85.6211 214.907 85.6816 213.594 85.1961C212.139 84.6602 212.571 84.2621 214.694 84.1814C216.615 84.1092 217.69 84.5056 217.085 85.0634ZM175.664 96.4681C175.664 96.8309 174.434 97.5634 172.931 98.0959C171.427 98.6267 170.197 98.3294 170.197 97.4357C170.197 96.5403 171.427 95.8079 172.931 95.8079C174.434 95.8079 175.664 96.1052 175.664 96.4681ZM195.71 115.966C195.71 116.89 194.89 117.646 193.888 117.646C192.886 117.646 192.066 116.89 192.066 115.966C192.066 115.043 192.886 114.287 193.888 114.287C194.89 114.287 195.71 115.043 195.71 115.966ZM213.023 115.966C212.403 116.89 211.126 117.646 210.182 117.646C209.238 117.646 208.467 116.89 208.467 115.966C208.467 115.043 209.746 114.287 211.308 114.287C212.87 114.287 213.643 115.043 213.023 115.966ZM148.329 129.406C148.329 130.329 149.509 131.085 150.955 131.085C152.4 131.085 154.087 130.329 154.707 129.406C155.327 128.482 154.144 127.726 152.081 127.726C150.018 127.726 148.329 128.482 148.329 129.406ZM130.105 139.485C130.105 140.409 129.744 141.165 129.301 141.165C128.858 141.165 127.991 140.409 127.371 139.485C126.752 138.561 127.114 137.805 128.175 137.805C129.235 137.805 130.105 138.561 130.105 139.485ZM206.645 142.944C206.645 143.921 205.91 144.304 205.014 143.794C204.115 143.281 202.841 144.162 202.182 145.747C201.159 148.203 200.738 148.267 199.333 146.171C198.038 144.239 197.21 144.15 195.464 145.759C193.72 147.367 192.665 147.363 190.537 145.744C188.394 144.115 187.668 144.125 187.058 145.794C186.633 146.955 185.538 147.478 184.621 146.955C183.705 146.433 182.954 145.343 182.954 144.531C182.954 143.722 185.62 142.752 188.877 142.379C192.133 142.008 197.465 141.581 200.722 141.434C203.979 141.286 206.645 141.966 206.645 142.944ZM300.177 150.239C300.716 151.535 300.689 153.026 300.118 153.554C299.546 154.081 298.373 154.11 297.511 153.619C296.647 153.127 295.941 151.637 295.941 150.305C295.941 148.973 296.674 147.884 297.569 147.884C298.464 147.884 299.637 148.944 300.177 150.239ZM190.243 154.419C190.243 155.702 188.809 157.843 187.054 159.175C184.098 161.421 184.093 161.532 186.996 160.693C188.718 160.196 190.52 160.379 191.003 161.098C191.486 161.817 183.592 163.302 173.461 164.398C163.329 165.494 154.678 166.056 154.235 165.649C153.792 165.241 153.911 164.193 154.495 163.319C155.08 162.446 158.647 160.369 162.423 158.706C166.197 157.041 171.252 155.477 173.656 155.23C176.058 154.982 178.682 154.174 179.488 153.431C180.291 152.69 183.041 152.084 185.596 152.084C188.348 152.084 190.243 153.036 190.243 154.419ZM196.434 153.204C195.918 153.974 194.725 154.604 193.781 154.604C192.837 154.604 192.066 153.974 192.066 153.204C192.066 152.433 193.259 151.803 194.719 151.803C196.179 151.803 196.95 152.433 196.434 153.204ZM319.632 152.924C319.632 153.848 317.172 154.604 314.165 154.604C311.158 154.604 308.698 153.848 308.698 152.924C308.698 152 311.158 151.244 314.165 151.244C317.172 151.244 319.632 152 319.632 152.924ZM335.427 154.044C334.758 154.659 334.211 155.734 334.211 156.43C334.211 157.127 336.566 158.174 339.445 158.756C342.323 159.339 346.855 159.313 349.518 158.696C353.387 157.801 353.935 157.11 352.26 155.251C351.109 153.97 347.123 152.924 343.404 152.924C339.684 152.924 336.094 153.428 335.427 154.044ZM299.009 159.959C298.427 161.298 297.995 160.9 297.908 158.943C297.829 157.172 298.26 156.181 298.865 156.739C299.47 157.297 299.535 158.746 299.009 159.959ZM215.757 160.623C215.757 162.086 214.784 162.985 213.594 162.619C212.402 162.252 211.104 161.056 210.707 159.959C210.31 158.861 211.285 157.964 212.872 157.964C214.457 157.964 215.757 159.161 215.757 160.623ZM140.193 169.835C140.232 175.591 139.692 178.697 138.954 176.973C138.238 175.295 137.593 171.905 137.522 169.441C137.453 166.974 137.892 163.763 138.5 162.301C139.109 160.84 139.723 159.645 139.867 159.645C140.011 159.647 140.157 164.231 140.193 169.835ZM166.552 169.723C165.049 170.618 160.949 171.273 157.44 171.178L151.062 171.005L156.529 169.723C159.536 169.017 163.637 168.362 165.641 168.268C168.641 168.125 168.801 168.382 166.552 169.723ZM195.217 170.737C194.612 171.295 193.039 171.356 191.725 170.87C190.271 170.334 190.703 169.936 192.826 169.855C194.746 169.783 195.822 170.18 195.217 170.737ZM95.4795 177.282C95.4795 178.668 96.274 179.802 97.2453 179.802C98.2149 179.802 98.5374 178.668 97.9615 177.282C97.3839 175.896 96.5893 174.762 96.1957 174.762C95.802 174.762 95.4795 175.896 95.4795 177.282ZM118.715 176.862C118.298 178.018 116.861 178.962 115.526 178.962C114.19 178.962 112.754 178.018 112.337 176.862C111.885 175.612 113.177 174.762 115.526 174.762C117.875 174.762 119.167 175.612 118.715 176.862ZM293.283 176.555C293.944 177.539 294.028 178.767 293.469 179.281C292.911 179.795 291.136 179.752 289.527 179.182C287.916 178.613 287.108 177.385 287.733 176.454C288.357 175.523 289.591 174.762 290.474 174.762C291.358 174.762 292.623 175.569 293.283 176.555ZM204.822 178.122C204.822 179.046 203.388 179.79 201.633 179.777C198.907 179.755 198.841 179.513 201.178 178.122C202.681 177.227 204.117 176.483 204.367 176.467C204.616 176.454 204.822 177.198 204.822 178.122ZM268.606 179.802C268.606 180.726 268.245 181.482 267.802 181.482C267.359 181.482 266.492 180.726 265.872 179.802C265.253 178.878 265.615 178.122 266.676 178.122C267.736 178.122 268.606 178.878 268.606 179.802ZM198.861 184.176C198.256 184.734 196.684 184.795 195.37 184.309C193.915 183.773 194.347 183.375 196.47 183.295C198.391 183.222 199.466 183.619 198.861 184.176ZM207.1 184.274C205.848 184.741 203.798 184.741 202.544 184.274C201.292 183.809 202.317 183.427 204.822 183.427C207.328 183.427 208.354 183.809 207.1 184.274ZM342.294 186.698C341.74 187.524 340.105 188.201 338.66 188.201C337.215 188.201 336.034 187.572 336.034 186.802C336.034 186.031 336.524 184.949 337.124 184.398C337.723 183.846 339.358 183.798 340.758 184.294C342.157 184.788 342.85 185.87 342.294 186.698ZM147.988 189.349C149.302 189.834 150.874 189.774 151.479 189.216C152.084 188.658 151.009 188.262 149.088 188.334C146.965 188.415 146.534 188.813 147.988 189.349ZM41.7192 198.281C42.3388 199.205 41.9761 199.961 40.9155 199.961C39.8549 199.961 38.9856 199.205 38.9856 198.281C38.9856 197.357 39.3465 196.601 39.7893 196.601C40.2321 196.601 41.0996 197.357 41.7192 198.281ZM61.7654 199.937C59.7608 200.743 55.8663 201.457 53.1091 201.523C50.3518 201.587 48.1012 201.073 48.1066 200.381C48.1121 199.689 52.0065 198.975 56.7629 198.795C63.0392 198.558 64.4115 198.87 61.7654 199.937ZM294.609 199.383C293.376 199.843 290.915 199.872 289.142 199.445C287.369 199.018 288.379 198.642 291.386 198.608C294.392 198.575 295.843 198.922 294.609 199.383ZM40.808 203.32C40.808 204.244 39.9879 205 38.9856 205C37.9833 205 37.1632 204.244 37.1632 203.32C37.1632 202.396 37.9833 201.641 38.9856 201.641C39.9879 201.641 40.808 202.396 40.808 203.32ZM66.1482 205.099C64.8361 205.847 63.0192 206.035 62.1135 205.519C61.2077 205.004 61.5394 203.969 62.8497 203.221C64.1618 202.474 65.9787 202.286 66.8845 202.801C67.7902 203.317 67.4585 204.352 66.1482 205.099ZM56.5661 206.153C56.1269 206.558 52.6152 207.25 48.7627 207.691C44.3452 208.195 42.4245 207.906 43.5616 206.909C44.553 206.038 47.0041 205.015 49.0087 204.634C51.0133 204.253 53.7141 204.273 55.0098 204.678C56.3055 205.084 57.0072 205.748 56.5661 206.153ZM71.7885 209.963C71.7885 210.929 69.7875 211.72 67.3401 211.72C64.8926 211.72 62.385 212.476 61.7654 213.4C61.1458 214.324 61.7125 215.103 63.0247 215.13C64.3678 215.16 63.8848 215.998 61.9185 217.05C58.9717 218.626 58.8295 219.212 61.0073 220.811C62.4269 221.855 64.5755 224.327 65.7837 226.31C67.5259 229.165 67.4877 230.289 65.6052 231.729C63.8302 233.088 62.354 232.628 59.7644 229.908C56.6481 226.637 56.6208 226.377 59.4874 227.341C61.2424 227.931 62.6766 227.863 62.6766 227.19C62.6766 226.518 61.0055 225.006 58.9644 223.83C55.9866 222.115 53.1036 222.102 44.3853 223.761C35.9331 225.371 33.0319 225.382 31.3316 223.815C29.6313 222.248 29.8336 221.744 32.2428 221.547C33.9467 221.408 36.3669 221.22 37.6188 221.127C38.8726 221.035 41.362 219.609 43.1516 217.959C44.9539 216.298 47.3959 215.503 48.6187 216.18C49.9983 216.943 49.8889 216.333 48.3308 214.562C46.1002 212.029 46.348 211.72 50.6088 211.72C53.2366 211.72 55.3871 211.105 55.3871 210.354C55.3871 209.603 59.0774 208.812 63.5878 208.597C68.3515 208.368 71.7885 208.941 71.7885 209.963ZM72.2441 216.192C70.9921 216.659 68.9419 216.659 67.6881 216.192C66.4362 215.726 67.4603 215.345 69.9661 215.345C72.4719 215.345 73.4979 215.726 72.2441 216.192ZM96.3178 240.861C99.0951 242.732 99.2336 243.382 97.1214 244.609C95.7182 245.427 91.4939 246.246 87.7343 246.433C83.9766 246.619 80.9004 246.067 80.9004 245.205C80.9004 244.343 81.7205 243.638 82.7228 243.638C83.7251 243.638 84.5452 242.504 84.5452 241.118C84.5452 239.606 86.2272 238.598 88.7531 238.598C91.0675 238.598 94.4717 239.616 96.3178 240.861ZM77.2556 248.677C77.2556 249.601 76.3864 250.357 75.3257 250.357C74.2651 250.357 73.9025 249.601 74.5221 248.677C75.1417 247.753 76.0091 246.997 76.452 246.997C76.8948 246.997 77.2556 247.753 77.2556 248.677ZM85.9703 250.616C85.5839 251.683 83.4663 253.171 81.2631 253.922C78.8739 254.737 77.2556 254.632 77.2556 253.663C77.2556 252.768 78.945 252.037 81.0079 252.037C83.0709 252.037 84.2536 251.281 83.634 250.357C83.0144 249.433 83.4445 248.677 84.5889 248.677C85.7352 248.677 86.3548 249.551 85.9703 250.616ZM144.684 271.601C144.684 272.768 146.734 275.613 149.24 277.922C151.746 280.232 153.796 283.335 153.796 284.818C153.796 286.428 154.643 287.031 155.901 286.315C157.204 285.571 157.51 285.853 156.702 287.054C155.988 288.121 154.743 288.994 153.936 288.994C153.129 288.994 150.331 286.152 147.72 282.678C145.108 279.204 142.696 274.689 142.357 272.642C142.018 270.596 141.172 268.399 140.478 267.759C139.785 267.119 139.242 265.777 139.275 264.776C139.306 263.776 140.536 264.424 142.009 266.217C143.479 268.011 144.684 270.433 144.684 271.601ZM137.31 277.235C137.487 273.405 137.679 273.311 139.47 276.153C140.977 278.544 140.764 279.888 138.553 281.927C135.925 284.35 135.421 284.03 132.829 278.315C131.267 274.868 130.602 271.136 131.351 270.022C132.199 268.764 133.547 270.539 134.914 274.715C136.651 280.017 137.156 280.548 137.31 277.235ZM163.855 290.595C165.109 294.407 164.987 294.511 162.237 291.976C160.6 290.468 159.263 287.896 159.263 286.258C159.263 284.447 159.895 283.908 160.881 284.879C161.77 285.756 163.108 288.329 163.855 290.595ZM153.63 293.288C154.37 292.867 155.162 296.32 155.392 300.962C155.622 305.603 156.502 311.078 157.348 313.129C158.324 315.498 158.013 318.772 156.493 322.105C155.177 324.991 154.441 327.667 154.858 328.052C155.275 328.436 154.388 328.752 152.885 328.752C151.091 328.752 150.078 326.97 149.941 323.571C149.827 320.722 149.903 316.881 150.115 315.033C150.326 313.185 151.241 311.421 152.146 311.113C153.054 310.804 153.796 309.86 153.796 309.014C153.796 308.165 152.772 307.663 151.518 307.893C150.218 308.133 148.983 306.244 148.642 303.49C148.312 300.838 148.618 296.68 149.322 294.251C150.025 291.822 150.98 290.784 151.443 291.944C151.906 293.105 152.89 293.71 153.63 293.288ZM166.396 305.793C166.452 308.103 165.734 311.105 164.801 312.464C163.868 313.823 162.554 314.426 161.88 313.805C161.205 313.185 160.442 310.384 160.185 307.584C159.926 304.784 160.433 302.902 161.311 303.403C162.19 303.902 162.966 302.188 163.035 299.593C163.148 295.442 163.352 295.279 164.73 298.234C165.592 300.082 166.341 303.483 166.396 305.793ZM184.845 376.768C184.845 388.087 184.995 399.615 185.179 402.387C185.363 405.158 185.232 412.718 184.887 419.185L184.262 430.945L182.877 421.705C182.115 416.624 181.416 406.04 181.323 398.187C181.23 390.333 181.68 377.672 182.323 370.049C182.967 362.427 183.798 356.19 184.169 356.19C184.541 356.19 184.845 365.449 184.845 376.768ZM215.179 453.939C214.598 455.278 214.166 454.88 214.078 452.923C214 451.152 214.43 450.161 215.035 450.718C215.64 451.276 215.706 452.726 215.179 453.939Z" fill="#151515"/>
</svg>
