<svg width="576" height="440" viewBox="0 0 576 440" fill="none" xmlns="http://www.w3.org/2000/svg">
<path fill-rule="evenodd" clip-rule="evenodd" d="M348.896 429.923C343.583 427.407 337.373 427.407 332.06 429.923C304.437 443.008 271.839 443.009 244.215 429.925C238.903 427.408 232.692 427.409 227.379 429.925C182.101 451.37 123.456 437.661 95.268 388.798L3.60177 229.899C0.033783 223.714 0.0337853 216.096 3.60177 209.911L95.2681 51.0116C123.457 2.14786 182.103 -11.5609 227.381 9.88522C232.694 12.4016 238.904 12.4019 244.217 9.88559C271.837 -3.19629 304.432 -3.19678 332.052 9.88412C337.365 12.4003 343.575 12.3998 348.888 9.88316C394.167 -11.5651 452.815 2.14326 481.004 51.0081L572.671 209.907C576.239 216.092 576.239 223.71 572.671 229.895L481.004 388.794C452.817 437.656 394.174 451.366 348.896 429.923ZM252.312 340.097C259.02 328.468 254.351 314.38 247.642 302.75L200.714 221.402C200.179 220.475 200.179 219.332 200.714 218.404L247.638 137.063C254.348 125.432 259.02 111.34 252.31 99.7088L236.062 71.5439C235.999 71.4346 235.936 71.3255 235.872 71.2167C235.848 71.1751 235.823 71.1336 235.799 71.092C235.71 71.2424 235.623 71.3933 235.535 71.5448L155.714 209.912C152.146 216.097 152.146 223.715 155.714 229.9L235.535 368.266C235.589 368.359 235.642 368.452 235.696 368.544L235.798 368.718C235.887 368.568 235.975 368.417 236.062 368.266L252.312 340.097ZM328.633 302.747C321.924 314.377 317.253 328.467 323.963 340.097L340.21 368.262C340.298 368.414 340.386 368.566 340.475 368.717C340.563 368.567 340.65 368.417 340.737 368.266L420.559 229.9C424.127 223.715 424.127 216.097 420.559 209.912L340.737 71.5449C340.65 71.3928 340.561 71.2412 340.473 71.0903C340.385 71.2398 340.297 71.3898 340.21 71.5404L323.961 99.7087C317.252 111.337 321.922 125.425 328.63 137.054L375.56 218.404C376.095 219.332 376.095 220.475 375.56 221.402L328.633 302.747ZM372.36 395.156C398.401 404.343 429.77 395.378 445.413 368.262L525.234 229.895C528.802 223.71 528.802 216.092 525.234 209.907L445.413 71.5404C429.769 44.4224 398.397 35.4581 372.355 44.6477C373.738 46.6985 375.064 48.8202 376.329 51.0126L467.995 209.912C471.563 216.097 471.563 223.715 467.995 229.9L376.329 388.799C375.066 390.989 373.741 393.108 372.36 395.156ZM130.86 71.5439C146.503 44.4266 177.874 35.4621 203.916 44.6505C202.533 46.7005 201.208 48.8212 199.943 51.0126L108.277 209.912C104.709 216.097 104.709 223.715 108.277 229.9L199.943 388.799C201.207 390.99 202.532 393.11 203.915 395.159C177.873 404.347 146.503 395.382 130.86 368.265L51.0382 229.899C47.4702 223.714 47.4702 216.096 51.0382 209.911L130.86 71.5439ZM279.474 280.602C283.322 287.273 292.95 287.273 296.798 280.602L328.932 224.9C330.716 221.808 330.716 217.999 328.932 214.906L296.798 159.204C292.95 152.533 283.322 152.533 279.474 159.204L247.341 214.906C245.557 217.999 245.557 221.808 247.341 224.9L279.474 280.602Z" fill="#1E443F"/>
</svg>
